<svg width="20" height="20" viewBox="0 0 20 20" fill="none" xmlns="http://www.w3.org/2000/svg">
<path d="M3.20312 0.09375C2.96875 0.203125 2.82422 0.351562 2.71875 0.585938C2.64844 0.738281 2.63672 0.84375 2.63672 1.375V1.98438L1.88672 2L1.13281 2.01172L0.875 2.13672C0.5625 2.28906 0.253906 2.60547 0.105469 2.91797L0 3.14453V10.9961V18.8477L0.125 19.1055C0.28125 19.418 0.59375 19.7266 0.90625 19.875L1.13281 19.9805H5.3125H9.49219L9.74609 19.8594C10.0781 19.7031 10.3477 19.4375 10.4922 19.125C10.6328 18.8281 10.6836 18.5391 10.6836 18.0547V17.6953H12.6562H14.6289V18.4297C14.6289 19.2461 14.6602 19.4102 14.8633 19.6562C14.9297 19.7344 15.0703 19.8438 15.1836 19.8984L15.3867 20H16.6562C17.8633 20 17.9336 19.9961 18.0938 19.918C18.3047 19.8164 18.5469 19.543 18.6055 19.3438C18.6367 19.2422 18.6523 18.8203 18.6523 18.0938V17L18.8086 16.8125C18.8984 16.707 19.0195 16.5156 19.082 16.3867C19.3203 15.9023 19.3203 15.9219 19.3086 13.1211L19.2969 10.5664L19.207 10.3398C19.1094 10.1016 18.8281 9.66406 18.5938 9.39062L18.457 9.23047L18.8125 9.16406C19.3633 9.0625 19.6367 8.89062 19.8438 8.50781C19.9375 8.33594 19.9609 8.24219 19.9727 7.96484C19.9883 7.66016 19.9805 7.60547 19.8828 7.38672C19.7578 7.11328 19.5195 6.87109 19.2461 6.74609C19.0742 6.66406 18.9922 6.66016 18.0039 6.64844L16.9414 6.63672L16.5391 5.76953C16.0703 4.76953 15.9336 4.54688 15.6328 4.27344C15.3555 4.01953 15.1484 3.89844 14.7617 3.76172L14.4531 3.65234L12.5703 3.64062L10.6875 3.625L10.6641 3.44531C10.582 2.85156 10.2344 2.35938 9.71484 2.11719C9.5 2.01562 9.46094 2.01172 8.74219 2L7.98828 1.98438V1.375C7.98828 0.816406 7.98047 0.746094 7.89453 0.566406C7.79688 0.351562 7.57812 0.136719 7.37891 0.0546875C7.27344 0.0117188 6.87109 0 5.32422 0H3.39844L3.20312 0.09375ZM7.20312 0.804688C7.27734 0.898438 7.28516 0.960938 7.28516 1.44922V1.99219H5.3125H3.33984V1.44531C3.33984 0.914062 3.34375 0.890625 3.4375 0.800781L3.53125 0.703125H5.32812H7.125L7.20312 0.804688ZM9.38672 2.75781C9.57031 2.83203 9.76562 3.01953 9.875 3.22266L9.96094 3.37891V10.9961V18.6133L9.83984 18.8281C9.75 18.9883 9.66406 19.0742 9.51172 19.168L9.30078 19.2969H5.32422C1.49219 19.2969 1.33984 19.293 1.19922 19.2227C1.00391 19.125 0.84375 18.9609 0.757812 18.7695C0.6875 18.6211 0.683594 18.3008 0.683594 11.0039C0.683594 2.60156 0.664062 3.25391 0.929688 2.97266C1 2.90234 1.125 2.80859 1.21094 2.76953C1.35938 2.69922 1.55078 2.69531 5.30469 2.69531C8.77344 2.69531 9.25781 2.70312 9.38672 2.75781ZM14.2734 4.37891C14.7969 4.46094 15.2539 4.78906 15.5 5.26172C15.5742 5.41016 15.9297 6.16016 16.2891 6.93359C16.6484 7.70703 16.9766 8.40625 17.0156 8.48438L17.0898 8.63281H13.8867H10.6836V6.48438V4.33594H12.3555C13.3203 4.33594 14.1289 4.35547 14.2734 4.37891ZM18.9648 7.41406C19.3555 7.60938 19.3828 8.18359 19.0078 8.375C18.8984 8.43359 17.8867 8.62109 17.8555 8.58984C17.8359 8.57031 17.2852 7.38281 17.2852 7.35938C17.2852 7.35156 17.6328 7.34375 18.0586 7.34375C18.7148 7.34375 18.8477 7.35547 18.9648 7.41406ZM17.7188 9.52734C17.8359 9.63281 18.0078 9.8125 18.0938 9.92969C18.2617 10.1484 18.5352 10.5781 18.5352 10.6289C18.5352 10.6445 18.082 10.6641 17.5273 10.6719L16.5195 10.6836L16.25 10.8164C15.5898 11.1406 15.2578 11.7656 15.3008 12.5938C15.3164 12.8789 15.332 12.9414 15.4297 13.0664C15.6445 13.3516 15.6875 13.3594 17.2383 13.3594H18.6172L18.6055 14.5586L18.5938 15.7617L18.4688 16.0195C18.2344 16.4922 17.7539 16.8594 17.2461 16.9531C17.1172 16.9766 16.4453 16.9883 15.6055 16.9844L14.1836 16.9727L13.7266 16.2148C13.4766 15.7969 13.2305 15.4219 13.1836 15.3828C13.1055 15.3203 12.9961 15.3125 11.8906 15.3125H10.6836V14.3359V13.3594H12.0312C13.6445 13.3594 13.6523 13.3555 13.6523 12.9844C13.6523 12.8906 13.6211 12.8164 13.5547 12.7539L13.4609 12.6562H12.0703H10.6836V10.9961V9.33594H14.0938H17.5039L17.7188 9.52734ZM18.6133 12.0117V12.6562H17.3047H15.9961V12.4492C15.9961 11.9883 16.1875 11.6484 16.5508 11.4688C16.75 11.3672 16.7617 11.3672 17.6836 11.3672H18.6133V12.0117ZM13.0469 16.4727C13.1992 16.7227 13.3281 16.9414 13.332 16.9609C13.3398 16.9766 12.7461 16.9922 12.0156 16.9922H10.6836V16.5039V16.0156H11.7305H12.7734L13.0469 16.4727ZM17.9492 18.3086C17.9492 19.082 17.9453 19.1211 17.8633 19.207L17.7812 19.2969H16.6523H15.5234L15.4297 19.1992C15.332 19.1055 15.332 19.0977 15.332 18.3984V17.6953H16.2227C17.0781 17.6914 17.543 17.6484 17.793 17.5469C17.8477 17.5234 17.9023 17.5039 17.9219 17.5039C17.9375 17.5 17.9492 17.8633 17.9492 18.3086Z" fill="#152D49"/>
<path d="M12.0703 5.09741C12 5.16381 11.9727 5.23413 11.9727 5.3396C11.9727 5.47631 12.0234 5.53491 13.0547 6.57006C13.8047 7.32006 14.168 7.65991 14.2461 7.67553C14.5039 7.73413 14.7344 7.44116 14.6328 7.19506C14.6055 7.13256 14.1172 6.61694 13.543 6.04272C12.5039 5.00366 12.4961 4.99975 12.332 4.99975C12.207 4.99975 12.1406 5.02319 12.0703 5.09741Z" fill="#499ED7"/>
<path d="M13.7383 5.08951C13.6758 5.15201 13.6523 5.23013 13.6523 5.34732C13.6523 5.48794 13.6758 5.53872 13.8359 5.70669C14.1484 6.04263 14.3555 6.09732 14.5547 5.90201C14.7422 5.7106 14.7148 5.5856 14.4062 5.26919C14.168 5.01919 14.1328 4.99966 13.9844 4.99966C13.8672 4.99966 13.8008 5.0231 13.7383 5.08951Z" fill="#499ED7"/>
<path d="M15.918 14.0662C15.7031 14.1639 15.5078 14.3436 15.3984 14.5506C15.332 14.6717 15.3125 14.7771 15.3125 14.9998C15.3125 15.2225 15.332 15.3279 15.3984 15.449C15.7852 16.1717 16.7891 16.2068 17.1953 15.5154C17.293 15.3553 17.3047 15.2928 17.3047 14.9998C17.3047 14.7068 17.293 14.6443 17.1953 14.4842C16.9414 14.0467 16.3711 13.8592 15.918 14.0662ZM16.5234 14.785C16.5859 14.8436 16.6211 14.9256 16.6211 14.9998C16.6211 15.1521 16.4687 15.3123 16.3281 15.3123C16.2031 15.3123 15.9961 15.117 15.9961 14.9998C15.9961 14.8826 16.2031 14.6873 16.3281 14.6873C16.3828 14.6873 16.4727 14.7303 16.5234 14.785Z" fill="#499ED7"/>
<path d="M4.29842 10.1177L4.40837 10.5868C4.62207 11.4983 5.33389 12.2097 6.24535 12.4238L6.71451 12.5338L6.24535 12.6437C5.33389 12.8574 4.62249 13.5692 4.40837 14.4807L4.29842 14.9499L4.18847 14.4807C3.97476 13.5692 3.26294 12.8578 2.35148 12.6437L1.88232 12.5338L2.35148 12.4238C3.26294 12.2101 3.97435 11.4983 4.18847 10.5868L4.29842 10.1177Z" stroke="#499ED7" stroke-width="0.882375" stroke-linecap="round" stroke-linejoin="round"/>
<path d="M7.29402 7.05859C7.45813 7.75883 8.00501 8.3057 8.70524 8.46981C8.00501 8.63391 7.45813 9.18079 7.29402 9.88102C7.12992 9.18079 6.58305 8.63391 5.88281 8.46981C6.58305 8.3057 7.12992 7.75883 7.29402 7.05859Z" stroke="#499ED7" stroke-width="0.882375" stroke-linecap="round" stroke-linejoin="round"/>
</svg>
