<svg width="14" height="20" viewBox="0 0 14 20" fill="none" xmlns="http://www.w3.org/2000/svg">
<path d="M4.70549 0.0257778C3.05987 0.143044 0.855276 0.451841 0.542568 0.612104C0.370579 0.698099 0.167319 0.920904 0.077415 1.11635C0.0187823 1.24534 0.0148734 1.96457 0.00314686 9.15294C-0.00467084 13.4957 0.00314686 17.1387 0.0148734 17.2482C0.0500531 17.5452 0.241587 17.8384 0.491753 17.9909C0.714558 18.1238 1.16408 18.2176 2.36018 18.3778L2.9856 18.4599L3.00514 19.0072C3.02469 19.5192 3.03251 19.5661 3.13023 19.7147C3.30612 19.9805 3.3843 20 4.38497 20C5.22928 20 5.26446 19.9961 5.39345 19.9101C5.46381 19.8632 5.56544 19.7616 5.61235 19.6912C5.69443 19.5739 5.70225 19.5114 5.70225 19.1166V18.671H6.6951H7.68795L7.70358 19.1361C7.71531 19.6521 7.75049 19.7342 8.01238 19.914C8.14137 20.0039 8.15701 20.0039 9.06386 19.9922C9.95508 19.9805 9.98635 19.9765 10.1114 19.8906C10.3342 19.7303 10.3694 19.613 10.3929 19.0072L10.4124 18.4599L11.0574 18.3739C12.0737 18.2371 12.6678 18.1277 12.8437 18.0417C12.9375 17.9948 13.0743 17.8892 13.1486 17.7993C13.4222 17.4827 13.4027 18.0886 13.4027 9.32884C13.4027 0.522202 13.4222 1.15544 13.1408 0.842728C13.0626 0.756733 12.9297 0.651194 12.8476 0.608196C12.5975 0.479204 10.9518 0.229038 9.41566 0.0805016C8.66907 0.0101414 5.47163 -0.0289459 4.70549 0.0257778ZM8.84887 0.752823C9.27885 0.784094 9.71273 0.819275 9.81827 0.831001L10.002 0.858362V3.63755C10.002 6.27994 9.99808 6.43238 9.92381 6.74118C9.62283 7.99983 8.61043 8.97704 7.34788 9.23112C6.86709 9.32884 6.19086 9.29757 5.74134 9.15294C4.56477 8.7816 3.70874 7.83175 3.45466 6.62782C3.40775 6.40111 3.39603 5.88514 3.39603 3.59847C3.39603 1.81603 3.40775 0.846636 3.43512 0.846636C3.45466 0.846636 3.75955 0.819275 4.10744 0.784094C5.52635 0.647285 7.25015 0.635559 8.84887 0.752823ZM2.70025 3.80564C2.71198 6.63955 2.71589 6.69427 2.79797 6.99526C3.00905 7.74185 3.3374 8.30081 3.88073 8.84414C4.45533 9.41483 5.09247 9.7549 5.89769 9.92299C6.4332 10.0363 7.29315 10.0051 7.79348 9.86044C9.0795 9.48129 10.0841 8.53534 10.5101 7.29624C10.7134 6.69818 10.7134 6.68646 10.7329 3.71573L10.7525 0.936539L11.1082 0.991264C12.0854 1.12807 12.4763 1.21016 12.5779 1.30006L12.6795 1.38606V9.32493V17.2599L12.5975 17.342C12.5036 17.4397 11.8978 17.557 10.7056 17.7133C9.16158 17.9127 8.57525 17.9479 6.69901 17.9479C5.32309 17.9479 4.77585 17.9322 4.1778 17.8775C2.84097 17.7524 1.14844 17.5062 0.906091 17.4006C0.816188 17.3615 0.769281 17.3068 0.738011 17.1974C0.70674 17.0918 0.698922 14.8169 0.70674 9.21939L0.718466 1.38606L0.820096 1.30006C0.921727 1.21016 1.10544 1.17107 2.18428 1.00299C2.43054 0.96781 2.64553 0.932631 2.66116 0.928722C2.6768 0.928722 2.69634 2.22255 2.70025 3.80564ZM4.65859 18.6163L4.99866 18.6436V18.9681V19.2964H4.3537H3.70874V18.9212V18.542L4.01363 18.5694C4.1778 18.5811 4.46705 18.6045 4.65859 18.6163ZM9.68928 18.9251V19.2964H9.04432H8.39936V18.9681V18.6397L8.82151 18.6124C9.05213 18.6006 9.26712 18.5811 9.29839 18.5772C9.32966 18.5694 9.43129 18.5615 9.52511 18.5576L9.68928 18.5537V18.9251Z" fill="#152D49"/>
<path d="M6.02328 3.38736C5.27278 3.58671 4.67863 4.05577 4.33465 4.72028C3.62715 6.08446 4.15876 7.734 5.52294 8.3946C5.95683 8.60567 6.32035 8.67994 6.83241 8.65649C7.94643 8.60567 8.86892 7.92162 9.25199 6.85842C9.3458 6.59652 9.35362 6.52226 9.35362 5.98674C9.35362 5.45123 9.3458 5.37696 9.25199 5.11507C8.96664 4.32157 8.3295 3.68834 7.56727 3.44208C7.12557 3.29745 6.44152 3.274 6.02328 3.38736ZM7.18421 4.07141C7.53991 4.16522 7.81744 4.32548 8.08715 4.5991C8.87674 5.38478 8.87674 6.5848 8.08715 7.37439C7.00049 8.46105 5.17506 7.9529 4.78417 6.45581C4.51837 5.4356 5.17115 4.35675 6.22263 4.07141C6.48843 4.00105 6.9184 4.00105 7.18421 4.07141Z" fill="#499ED7"/>
<path d="M7.19538 4.6654C7.16801 4.67713 6.96866 4.94684 6.75368 5.26737C6.42924 5.75206 6.3667 5.87324 6.3667 5.99832C6.3667 6.20158 6.49178 6.31885 6.70286 6.31885C6.8983 6.31885 6.95303 6.26412 7.38691 5.61525C7.65271 5.21655 7.71134 5.09929 7.71134 4.9742C7.71525 4.72795 7.44163 4.56377 7.19538 4.6654Z" fill="#499ED7"/>
<path d="M1.461 10.4036C1.3711 10.4896 1.36328 10.5287 1.36328 10.8258C1.36328 11.1189 1.3711 11.1619 1.45709 11.2401C1.58999 11.3652 1.80889 11.3613 1.93788 11.2323C2.11378 11.0564 2.10987 10.5795 1.93006 10.3997C1.80107 10.2707 1.58999 10.2707 1.461 10.4036Z" fill="#152D49"/>
<path d="M4.7449 11.0446C4.3892 11.2088 4.33838 11.3651 4.33447 12.2994C4.33447 13.0811 4.36183 13.2492 4.51819 13.4329C4.71754 13.6753 4.66282 13.6675 6.70324 13.6675C8.50912 13.6675 8.56776 13.6635 8.70848 13.5854C8.78665 13.5424 8.8961 13.4446 8.94692 13.3665C9.04073 13.2258 9.04464 13.2023 9.05636 12.3932C9.072 11.4433 9.04073 11.3104 8.76711 11.1032L8.62248 10.9899L6.76187 10.9821C5.02243 10.9703 4.88953 10.9743 4.7449 11.0446ZM8.36059 12.3189V12.9639H6.69933H5.03807V12.3189V11.6739H6.69933H8.36059V12.3189Z" fill="#499ED7"/>
<path d="M1.44928 12.0765L1.36328 12.1664V14.328V16.4857L1.461 16.5795C1.58609 16.7085 1.78935 16.7085 1.93788 16.5834L2.04733 16.4896V14.3397V12.1899L1.95352 12.0883C1.82453 11.9514 1.57045 11.9475 1.44928 12.0765Z" fill="#152D49"/>
<path d="M3.88082 14.3477C3.66193 14.4454 3.61502 14.7464 3.78701 14.9184C3.85737 14.9888 3.91991 14.9966 4.36552 14.9966C4.83849 14.9966 4.87367 14.9927 4.95185 14.9067C5.07693 14.7738 5.06911 14.5314 4.93621 14.4063C4.84631 14.3204 4.7994 14.3125 4.42024 14.3008C4.12708 14.2969 3.96682 14.3086 3.88082 14.3477Z" fill="#499ED7"/>
<path d="M8.60655 14.3204C8.37592 14.3633 8.28211 14.7269 8.45801 14.8989C8.54791 14.9927 8.57528 14.9966 9.03261 14.9966C9.57594 14.9966 9.66975 14.9614 9.70884 14.7503C9.74402 14.5627 9.67366 14.4142 9.5134 14.3516C9.38441 14.2969 8.82544 14.2774 8.60655 14.3204Z" fill="#499ED7"/>
<path d="M3.7869 15.7391C3.67354 15.8525 3.65009 16.001 3.72045 16.1534C3.80644 16.3254 3.98234 16.3762 4.45922 16.3606C4.79538 16.345 4.8462 16.3332 4.9361 16.2512C5.07291 16.1222 5.07682 15.8681 4.94783 15.7469C4.86574 15.6687 4.81493 15.6609 4.3615 15.6609C3.9198 15.6609 3.85726 15.6687 3.7869 15.7391Z" fill="#499ED7"/>
<path d="M8.45808 15.7586C8.32909 15.8837 8.32909 16.0869 8.45417 16.2355C8.54407 16.3371 8.56753 16.3449 8.9545 16.3566C9.56428 16.3801 9.77536 16.255 9.70891 15.9071C9.66982 15.696 9.57601 15.6609 9.03268 15.6609C8.57534 15.6609 8.54798 15.6648 8.45808 15.7586Z" fill="#499ED7"/>
</svg>
