<svg width="20" height="20" viewBox="0 0 20 20" fill="none" xmlns="http://www.w3.org/2000/svg">
<path d="M9.68425 1.24918L9.5957 1.33418V10.2283V19.1224L9.68425 19.2074C9.79052 19.3172 10.0101 19.3279 10.1306 19.2287L10.2156 19.1614V10.2283V1.29522L10.1306 1.22792C10.0101 1.12875 9.79052 1.13937 9.68425 1.24918Z" fill="#152D49"/>
<path d="M8.2248 2.47082C7.42076 2.6798 6.82923 3.11193 6.51753 3.707C6.10311 4.5075 6.1952 5.23717 6.79735 5.88182C7.11614 6.2254 7.3145 6.50523 7.49868 6.86652C7.73954 7.34115 7.7785 7.75557 7.59432 7.876C7.51285 7.92914 7.50222 7.92559 7.26845 7.73786C6.55649 7.16759 5.7489 6.80276 4.8563 6.64691C3.74764 6.45918 2.95068 6.6965 2.25289 7.42616C1.75346 7.95039 1.4028 8.59504 1.21507 9.34242C1.12297 9.70371 1.12297 10.5644 1.21507 10.9009C1.43467 11.7191 1.77117 12.2575 2.27414 12.594C2.62835 12.8278 2.90817 12.9234 3.32968 12.9447C3.8787 12.9766 4.17977 12.8632 4.62607 12.4559C4.99445 12.1229 5.2601 11.9352 5.65327 11.7298C5.95789 11.5704 6.00039 11.5597 6.29438 11.5456L6.60962 11.5314L6.65213 11.6412C6.69818 11.7439 6.69109 11.7581 6.53878 11.9352C5.64618 12.9907 5.15738 14.6909 5.44783 15.7323C5.71348 16.6922 6.52462 17.4644 7.71121 17.893C7.98394 17.9886 8.48692 18.0913 8.69944 18.0913C8.85883 18.0913 9.02885 17.9319 9.02885 17.7761C9.02885 17.5706 8.91196 17.4927 8.49754 17.4219C7.35346 17.2235 6.40419 16.5293 6.10311 15.6721C5.95789 15.2647 5.97205 14.7653 6.14561 14.0994C6.29792 13.5114 6.66276 12.7888 7.00988 12.385L7.13385 12.2398L7.31095 12.3815C7.69704 12.6861 8.26377 12.9199 8.64277 12.9305C8.88363 12.9376 8.98281 12.8703 9.01468 12.6684C9.03239 12.5692 9.01823 12.5232 8.94738 12.4382C8.873 12.3496 8.80924 12.3213 8.61443 12.2859C7.64745 12.1123 6.90362 11.2162 6.90362 10.2279C6.90362 9.6612 7.10906 9.17594 7.52348 8.75444C7.81393 8.46044 8.22126 8.24084 8.61443 8.17C8.80924 8.13457 8.873 8.10624 8.94738 8.01769C9.01823 7.93268 9.03239 7.88663 9.01468 7.78745C8.97926 7.55368 8.79862 7.47221 8.47275 7.54305L8.36294 7.56784L8.33815 7.38366C8.26023 6.79922 7.89893 6.11914 7.34283 5.51345C6.99925 5.13799 6.92487 4.98214 6.92133 4.63148C6.92133 4.32686 7.01696 4.07891 7.25782 3.76013C7.49868 3.44134 8.02645 3.16152 8.59672 3.05172C8.74549 3.02338 8.89425 2.97379 8.92967 2.94191C9.06073 2.82148 9.04302 2.56291 8.89071 2.44602C8.80924 2.38227 8.5188 2.39289 8.2248 2.47082ZM4.69337 7.27031C5.41595 7.39428 6.13853 7.70244 6.70172 8.12041L7.01342 8.35418L6.8682 8.51712C6.69109 8.71902 6.42898 9.24324 6.34751 9.55494C6.29084 9.78518 6.26605 10.3554 6.30147 10.7061L6.31918 10.8832L6.14207 10.9045C5.85162 10.9434 5.66389 11.0036 5.33094 11.1701C4.92006 11.3791 4.66503 11.5527 4.2577 11.914C3.86099 12.2611 3.69451 12.3319 3.32968 12.3107C2.52563 12.2682 1.85618 11.3897 1.77825 10.2846C1.70387 9.22199 2.43354 7.86538 3.30488 7.43325C3.73701 7.22072 4.13372 7.17468 4.69337 7.27031Z" fill="#152D49"/>
<path d="M11.7632 2.49234C11.4622 2.6411 11.2603 2.95635 11.2603 3.28222C11.2603 3.35306 11.3878 4.0721 11.5472 4.87969L11.8341 6.34964L11.3169 7.24932C10.9875 7.8196 10.7998 8.18443 10.7998 8.24819C10.7998 8.30132 10.8388 8.38987 10.8848 8.44654C10.9875 8.56697 11.2107 8.58468 11.324 8.48196C11.363 8.44654 11.6464 7.97899 11.9545 7.4406L12.5142 6.46653L12.206 4.88677C12.036 4.01542 11.8978 3.28222 11.8978 3.25742C11.8978 3.16533 12.0679 3.03781 12.1918 3.03781C12.4185 3.03781 12.4469 3.10865 12.6381 4.07918C12.8294 5.06033 12.8507 5.10992 13.0986 5.10992C13.1836 5.10992 13.2651 5.08158 13.3076 5.04262C13.3465 5.0072 13.5697 4.64945 13.7999 4.2492C14.0302 3.84895 14.2569 3.47349 14.2994 3.42036C14.4481 3.24325 14.735 3.31055 14.7846 3.53724C14.8059 3.63288 14.7492 3.74977 14.3277 4.48298C14.0231 5.01783 13.846 5.36141 13.846 5.42162C13.846 5.54914 14.0195 5.72978 14.14 5.72978C14.186 5.72978 14.604 5.60227 15.0644 5.44641C15.578 5.27285 15.9323 5.17013 15.9748 5.18076C16.1696 5.24452 16.2475 5.50663 16.1164 5.64831C16.0775 5.68728 15.9075 5.76874 15.7339 5.82542C14.1116 6.37089 13.0738 6.73927 13.0242 6.78886C12.9428 6.86324 11.4763 9.39935 11.4374 9.53041C11.4197 9.58708 11.4197 9.67209 11.4445 9.73585C11.5153 9.94483 11.5259 9.94483 13.2509 9.94483C14.6784 9.94483 14.8307 9.93775 14.9086 9.88462C14.9582 9.8492 15.5107 9.37456 16.1377 8.822C16.7646 8.27298 17.3172 7.81251 17.3703 7.79834C17.5439 7.75584 17.7387 7.96482 17.6927 8.14901C17.6785 8.20568 17.4164 8.46071 16.9807 8.84325C16.3077 9.43832 16.29 9.45603 16.29 9.59063C16.29 9.93421 16.3254 9.94483 17.473 9.94483C17.9866 9.94483 18.4365 9.95546 18.4684 9.96609C18.5357 9.99442 18.6278 10.1609 18.6278 10.2565C18.6278 10.2955 18.5853 10.3663 18.5357 10.4195L18.44 10.5116H17.4872C16.3219 10.5116 16.29 10.5222 16.29 10.8693C16.29 11.0039 16.3042 11.0181 16.9807 11.6096C17.427 11.9992 17.6785 12.2472 17.6927 12.3038C17.7387 12.488 17.5439 12.7006 17.3739 12.6581C17.3243 12.6474 16.7717 12.187 16.1412 11.6344C15.5107 11.0854 14.9582 10.6072 14.9086 10.5718C14.8307 10.5186 14.6784 10.5116 13.2509 10.5116C11.5259 10.5116 11.5153 10.5116 11.4445 10.7205C11.4197 10.7843 11.4197 10.8693 11.4374 10.926C11.4763 11.057 12.9428 13.5932 13.0242 13.6675C13.0561 13.6994 13.7078 13.9367 14.4658 14.1953C16.0527 14.7337 16.0704 14.7408 16.1341 14.8258C16.2192 14.9356 16.1944 15.1021 16.0739 15.2013C16.0137 15.2508 15.95 15.2933 15.9287 15.2933C15.9075 15.2933 15.5143 15.1658 15.0609 15.01C14.604 14.8541 14.1896 14.7266 14.14 14.7266C14.0195 14.7266 13.846 14.9073 13.846 15.0348C13.846 15.0985 13.9593 15.3358 14.1506 15.6688C14.8236 16.8341 14.813 16.8129 14.7882 16.905C14.7421 17.0892 14.5473 17.1848 14.3631 17.114C14.3312 17.1033 14.1045 16.742 13.8566 16.3099C13.6087 15.8813 13.3713 15.4882 13.3288 15.4386C13.2686 15.3677 13.219 15.3465 13.1057 15.3465C12.8471 15.3465 12.8294 15.389 12.6346 16.3808C12.4433 17.3477 12.415 17.4186 12.1918 17.4186C12.0679 17.4186 11.8978 17.2911 11.8978 17.199C11.8943 17.1742 12.0324 16.441 12.2025 15.5696L12.5142 13.9899L11.951 13.0087C11.6428 12.4703 11.3488 11.9992 11.3028 11.9603C11.2532 11.9248 11.1682 11.893 11.1115 11.893C10.9698 11.893 10.7998 12.063 10.7998 12.2047C10.7998 12.272 10.9734 12.6085 11.3169 13.2071L11.8305 14.1068L11.5472 15.5625C11.3878 16.3666 11.2603 17.0821 11.2603 17.16C11.2603 17.6524 11.6641 18.0562 12.1564 18.0562C12.4469 18.0562 12.6169 17.9959 12.8011 17.8365C13.003 17.6594 13.0774 17.4894 13.173 16.9829L13.2545 16.5649L13.4989 16.9935C13.637 17.2273 13.7964 17.4717 13.8566 17.5319C14.3277 17.9995 15.199 17.787 15.3868 17.1565C15.4966 16.7916 15.4541 16.6216 15.1247 16.0513C15.0007 15.8459 14.9086 15.6688 14.9157 15.6617C14.9228 15.6546 15.1211 15.7113 15.3514 15.7892C15.5851 15.8672 15.826 15.9309 15.8862 15.9309C16.2192 15.9345 16.6194 15.683 16.754 15.3819C16.8426 15.1906 16.8426 14.7939 16.754 14.6026C16.6796 14.4397 16.5061 14.252 16.3538 14.1741C16.2935 14.1422 15.6383 13.9119 14.8944 13.6605C14.1541 13.409 13.5236 13.1929 13.4953 13.1752C13.4705 13.161 13.1907 12.7041 12.8755 12.1586L12.3016 11.1668L13.4493 11.1562L14.5934 11.1491L15.7126 12.1267C16.329 12.6687 16.8992 13.1469 16.9842 13.1929C17.4164 13.4338 18.0079 13.2496 18.2488 12.7997C18.309 12.6864 18.3267 12.5943 18.3267 12.3711C18.3267 11.9886 18.2558 11.8682 17.8166 11.4785L17.466 11.1668L18.0362 11.1491C18.6738 11.1279 18.7801 11.0995 18.989 10.8941C19.4176 10.462 19.3326 9.72877 18.8155 9.42415C18.6526 9.32851 18.6242 9.32497 18.0504 9.30726L17.4553 9.28955L17.7918 8.99556C18.2417 8.60593 18.3267 8.46071 18.3267 8.08525C18.3267 7.8621 18.309 7.77001 18.2488 7.65666C18.0079 7.20682 17.4164 7.02263 16.9842 7.26349C16.8992 7.30954 16.329 7.78772 15.7126 8.32611L14.5969 9.30726H13.4422H12.291L12.755 8.49967C13.0101 8.05691 13.2757 7.59999 13.3465 7.48664L13.4741 7.27766L14.8625 6.80657C15.6241 6.548 16.2971 6.31068 16.3538 6.28234C16.6548 6.12649 16.8213 5.83604 16.8213 5.46413C16.8213 5.06742 16.6371 4.77342 16.3006 4.62466C16.0102 4.49714 15.8579 4.50423 15.3691 4.66362C15.1282 4.74154 14.9228 4.80176 14.9157 4.79468C14.9086 4.78759 15.0007 4.61049 15.1247 4.40505C15.3797 3.96229 15.4364 3.82061 15.4399 3.601C15.4434 3.07678 15.0361 2.67298 14.5048 2.67652C14.2356 2.68007 14.0231 2.76153 13.8566 2.92447C13.7964 2.98822 13.6405 3.22554 13.5095 3.45224C13.3784 3.68247 13.2651 3.87374 13.2615 3.88082C13.258 3.88437 13.2155 3.70372 13.173 3.47349C13.0774 2.97406 13.0419 2.87842 12.8861 2.70132C12.6204 2.40024 12.1316 2.30815 11.7632 2.49234Z" fill="#499ED7"/>
<path d="M8.33077 8.86446C7.40629 9.32493 7.19377 10.5257 7.89864 11.2731C8.10762 11.4927 8.50787 11.7158 8.6956 11.7158C8.8727 11.7158 9.01084 11.5812 9.01084 11.4041C9.01084 11.2235 8.95771 11.1668 8.6956 11.0464C7.93406 10.6992 7.93406 9.75706 8.69914 9.40994C9.04626 9.25055 9.12773 9.04511 8.92583 8.84321C8.78415 8.70507 8.64247 8.70861 8.33077 8.86446Z" fill="#152D49"/>
</svg>
