<svg width="43" height="45" viewBox="0 0 43 45" fill="none" xmlns="http://www.w3.org/2000/svg">
<path d="M34.6218 28.7505C34.1205 28.99 33.5369 28.99 33.0356 28.7505L31.2019 27.6147C30.2859 27.0526 30.3199 26.6451 30.2859 26.0571L30.2949 22.9258" stroke="white" stroke-width="1.5" stroke-linecap="round" stroke-linejoin="round"/>
<path d="M34.5902 22.5976C29.1685 22.5976 27.1427 23.636 27.6458 18.0195H34.8994C36.5642 18.0195 37.9145 19.3698 37.9145 21.0346L37.9619 29.6403C37.9619 29.6403 40.2638 30.483 40.9957 31.3194C41.4854 31.8788 41.7499 32.6009 41.7499 33.3453V43.345" stroke="white" stroke-width="1.5" stroke-linecap="round" stroke-linejoin="round"/>
<path d="M30.1995 36.1006V43.3443" stroke="white" stroke-width="1.5" stroke-linecap="round" stroke-linejoin="round"/>
<path d="M38.6573 36.1006V43.3443" stroke="white" stroke-width="1.5" stroke-linecap="round" stroke-linejoin="round"/>
<path d="M31.524 30.0732L30.4901 30.4209C29.7215 30.6791 29.096 31.2448 28.7618 31.9838L26.5161 36.9462L24.8164 32.7711C24.501 31.9972 23.6824 31.5531 22.8621 31.7122C21.7754 31.9222 21.1534 33.0741 21.5743 34.0973L24.3285 40.8031C24.6573 41.6046 25.4375 42.1274 26.3043 42.1274C27.0862 42.1274 27.8065 41.6994 28.18 41.0122" stroke="white" stroke-width="1.5" stroke-linecap="round" stroke-linejoin="round"/>
<path d="M33.0754 14.9696L34.7465 12.2789H39.0734C40.3245 12.2789 41.3388 11.2646 41.3388 10.0135V3.0173C41.3388 1.76622 40.3245 0.751953 39.0734 0.751953H27.8718C26.6207 0.751953 25.6064 1.76622 25.6064 3.0173V10.1083C25.6064 11.2646 26.5439 12.202 27.7002 12.202H30.5312" stroke="white" stroke-width="1.5" stroke-linecap="round" stroke-linejoin="round"/>
<path d="M36.9257 7.48806C37.4 7.48806 37.7845 7.10358 37.7845 6.62928C37.7845 6.15499 37.4 5.77051 36.9257 5.77051C36.4514 5.77051 36.0669 6.15499 36.0669 6.62928C36.0669 7.10358 36.4514 7.48806 36.9257 7.48806Z" fill="white"/>
<path d="M33.4726 7.48806C33.9469 7.48806 34.3314 7.10358 34.3314 6.62928C34.3314 6.15499 33.9469 5.77051 33.4726 5.77051C32.9983 5.77051 32.6138 6.15499 32.6138 6.62928C32.6138 7.10358 32.9983 7.48806 33.4726 7.48806Z" fill="white"/>
<path d="M30.019 7.48806C30.4932 7.48806 30.8777 7.10358 30.8777 6.62928C30.8777 6.15499 30.4932 5.77051 30.019 5.77051C29.5447 5.77051 29.1602 6.15499 29.1602 6.62928C29.1602 7.10358 29.5447 7.48806 30.019 7.48806Z" fill="white"/>
<path d="M0.76001 37.0352H18.2028" stroke="white" stroke-width="1.5" stroke-linecap="round" stroke-linejoin="round"/>
<path d="M10.7964 39.8564H12.1708" stroke="white" stroke-width="1.5" stroke-linecap="round" stroke-linejoin="round"/>
<path d="M21.8754 42.1277C21.3276 42.6889 20.5627 43.0375 19.7173 43.0375H3.7669C2.10117 43.0375 0.75 41.6872 0.75 40.0206V3.7669C0.75 2.10117 2.10028 0.75 3.7669 0.75H19.7173C21.383 0.75 22.7342 2.10028 22.7342 3.7669V28.4061" stroke="white" stroke-width="1.5" stroke-linecap="round" stroke-linejoin="round"/>
<path d="M18.0132 25.4365H5.47021V29.3855H18.0132V25.4365Z" stroke="white" stroke-width="1.5" stroke-linecap="round" stroke-linejoin="round"/>
<path d="M14.5841 11.7108H8.89973C7.8095 11.7108 6.92569 10.827 6.92569 9.73673C6.92569 8.6465 7.8095 7.7627 8.89973 7.7627H14.5841C15.6743 7.7627 16.5581 8.6465 16.5581 9.73673C16.5581 10.827 15.6743 11.7108 14.5841 11.7108Z" stroke="white" stroke-width="1.5" stroke-linecap="round" stroke-linejoin="round"/>
<path d="M11.7414 21.1053C13.1395 21.1053 14.273 19.9718 14.273 18.5736C14.273 17.1755 13.1395 16.042 11.7414 16.042C10.3432 16.042 9.20972 17.1755 9.20972 18.5736C9.20972 19.9718 10.3432 21.1053 11.7414 21.1053Z" stroke="white" stroke-width="1.5" stroke-linecap="round" stroke-linejoin="round"/>
<path d="M11.7422 11.7119V16.0433" stroke="white" stroke-width="1.5" stroke-linecap="round" stroke-linejoin="round"/>
<path d="M11.7422 21.1045V25.4368" stroke="white" stroke-width="1.5" stroke-linecap="round" stroke-linejoin="round"/>
</svg>
